<svg xmlns="http://www.w3.org/2000/svg" width="24px" height="24px" viewBox="0 0 24 24">
  <path d=" M 12.591 8.815 Q 17.879 9.094 21.6 14.4 L 16 14.4 L 16 14.4 C 16 12.457 14.612 10.836 12.77 10.488 C 12.79 10.315 12.8 10.14 12.8 9.963 C 12.8 9.608 12.73 9.225 12.591 8.815 Z  M 4.421 12 Q 3.358 13.033 2.4 14.4 L 8 14.4 C 8 14.396 8 14.392 8 14.388 C 6.44 14.259 5.107 13.324 4.421 12 Z  M 9.203 14.306 C 9.201 14.337 9.2 14.369 9.2 14.4 L 9.2 14.4 C 9.2 15.12 9.52 15.84 10 16.4 C 10.56 16.88 11.28 17.2 12 17.2 C 12.72 17.2 13.44 16.88 14 16.4 C 14.48 15.84 14.8 15.12 14.8 14.4 C 14.8 13.68 14.48 12.96 14 12.4 C 13.558 12.021 13.017 11.742 12.453 11.649 C 11.904 13.014 10.686 14.034 9.203 14.306 Z  M 16 14.4 C 16 16.608 14.208 18.4 12 18.4 C 9.792 18.4 8 16.608 8 14.4 L 2.4 14.4 Q 6.327 20 12 20 Q 17.673 20 21.6 14.4 L 16 14.4 L 16 14.4 Z "/>
  <path d=" M 4.48 9.824 Q 4.48 7.681 8.363 4 Q 12.245 7.681 12.245 9.824 C 12.245 11.967 10.506 13.707 8.363 13.707 C 6.22 13.707 4.48 11.967 4.48 9.824 Z  M 5.52 9.84 C 5.52 9.36 5.68 8.88 5.92 8.48 C 6.64 7.44 7.44 6.4 8.4 5.44 C 9.28 6.4 10.08 7.44 10.8 8.48 C 11.04 8.88 11.2 9.36 11.2 9.84 C 11.2 10.56 10.88 11.28 10.4 11.84 C 9.84 12.4 9.12 12.64 8.4 12.64 C 7.6 12.64 6.88 12.4 6.32 11.84 C 5.84 11.28 5.52 10.56 5.52 9.84 Z "/>
</svg>