<svg version="1.1" id="svg-17" xmlns="http://www.w3.org/2000/svg"
	 viewBox="0 0 24 24" width="128px" height="128px">

<rect fill="#FF8A80" class="st0" width="24" height="24"/>

	<path fill="#424242" class="st2" d="M7,4.8C6,5.7,5.7,6.8,5.5,7.6c-0.3,1-0.8,2.8,0.1,4.1c0.4,0.5,0.8,0.6,1,1.3c0.2,0.7-0.1,1.5-0.3,1.7
		c-0.8,1.7-2.7,2.1-2.6,2.5c0.1,0.3,1,0.5,1.8,0.3c1.4-0.3,2.7-1.4,3.2-2.9c0.5-1.5,0.3-3.7,0.1-5.2c0-0.2-0.1-0.5,0.1-1
		C9.2,7.5,9.9,7,10.1,6.8c1.4-1,3.4-0.7,4.4,0.1c0.2,0.1,0.4,0.3,0.6,0.7c0.2,0.4,0.2,0.8,0,1.6c-0.1,0.4-0.1,0.7-0.2,1
		c-0.1,0.3-0.1,0.5-0.1,0.6c-0.7,2.5-0.2,3.8-0.2,3.8c0.5,1.6,2.3,2.6,3.7,2.7c0.1,0,0.9,0,1-0.2c0.2-0.5-1.7-1-2.2-2.5
		c-0.2-0.8,0-1.5,0.2-2.3c0.5-1.5,1.1-1.6,1.3-2.7c0.4-1.7-0.6-3.2-0.8-3.6c-1-1.5-2.4-2.1-3.3-2.4c0,0-2-0.8-3.6-0.3
		c-0.1,0-0.1,0-0.1,0c-0.2,0.1-0.2,0.3-0.3,0.3c-0.1,0-0.2-0.1-0.4-0.1h0c-0.1,0-0.1,0-0.2,0C9.6,3.6,8.2,3.7,7,4.8z"/>
	<path fill="#F7E3A9" class="st3" d="M9.3,6.6c0.6-0.2,1.2-0.3,2.1-0.3c1,0,1.5,0,2,0c0.6,0.1,1.2,0.2,1.6,0.7c0.3,0.3,0.5,0.7,0.6,1
		c0.1,0.5,0.2,1.2-0.1,2.5c-0.3,1-0.5,1.3-0.7,2c-0.3,0.9-0.9,1.8,0,3.3C15.6,17.2,17,18,17,18c0.3,0.2,0.6,0.3,0.7,0.5
		c0.3,0.8-1.6,2.1-1.8,2.2c-2.2,1.5-5.8,2-8.3,0.4c-0.9-0.6-2.1-1.6-1.8-2.3c0.1-0.2,0.3-0.2,1.2-0.7c1.5-0.8,1.8-1.2,1.9-1.3
		c0.4-0.5,0.5-1.1,0.5-1.4c0-0.2,0.1-0.8-0.3-2.1C8.6,11.9,8.4,12,8.1,11C8,10.4,7.8,9.7,7.9,8.7C8,8.2,8.1,7.2,8.9,6.8
		C9,6.7,9.1,6.7,9.3,6.6z"/>
	<path fill="#616161" class="st4" d="M11.6,7.2c0.9,0.7,0.8,1.7,1.2,1.7c0.3,0,0.5-0.6,0.6-1c0.1-0.6-0.2-1.1-0.3-1.3c-0.5-1-1.5-1.3-1.6-1.3
		c-1.6-0.5-3,0.9-3.3,1.3C8.1,6.7,8,7,8,7.4c0,0,0,0.3,0,0.3c0,0,0.1-0.2,0.2-0.4c0,0,0.2-0.3,0.6-0.5C9.4,6.5,10.7,6.4,11.6,7.2z"
		/>
	<circle fill="#000" class="st5" cx="9.9" cy="9.4" r="0.3"/>
	<circle fill="#000" class="st5" cx="13.9" cy="9.4" r="0.3"/>
	<path fill="#ACDDE2" class="st6" d="M21.8,24H2.2c0,0,2.6-6,4.9-6c2.4,0,1.5,1.9,4.7,1.9c3.2,0,2.8-1.9,5.1-1.9S21.8,24,21.8,24z"/>

</svg>
