<svg version="1.1" id="avatar_female" xmlns="http://www.w3.org/2000/svg" width="24px" height="24px"  viewBox="0 0 24 24">
<circle fill="#E91E63" cx="12" cy="12" r="12"/>
<path style="fill: #FFFFFF;" d="M18.7,19.2c-1-0.4-2-0.9-3-1.3c-0.4-0.2-0.7-0.4-1-0.6c-0.4-0.3-0.5-0.6-0.5-1.1c0.5-0.1,1-0.2,1.5-0.3
	c0.4-0.1,0.9-0.3,1.3-0.5c0.3-0.1,0.3-0.3,0.2-0.7c-0.2-0.7-0.3-1.4-0.3-2.2c-0.1-1.3,0-2.6-0.1-3.9c-0.1-0.7-0.3-1.5-0.5-2.2
	c-0.4-1-1.2-1.5-2.2-1.6c-0.1,0-0.3,0-0.4-0.1c-2.1-0.9-4.4,0-5.4,2.1C7.7,8,7.5,9.2,7.5,10.3c-0.1,1.1-0.1,2.3-0.2,3.4
	c0,0.3-0.1,0.7-0.3,1c-0.2,0.4-0.1,0.6,0.2,0.7c0.7,0.2,1.4,0.4,2.2,0.6c0.2,0,0.3,0.1,0.5,0.1c0.1,0.6-0.2,1-0.6,1.2
	c-0.5,0.3-1.1,0.6-1.6,0.8c-0.8,0.4-1.6,0.7-2.4,1c1.7,1.6,4.1,2.6,6.6,2.6C14.6,21.9,16.9,20.8,18.7,19.2z"/>
</svg>
