<svg version="1.1" id="avatar_male" xmlns="http://www.w3.org/2000/svg" width="24px" height="24px"  viewBox="0 0 24 24">
<circle fill="#2196F3" cx="12" cy="12" r="12"/>
<path style="fill: #FFFFFF;" d="M19.2,18.9c-0.1,0-0.2-0.1-0.3-0.1c-0.3-0.1-0.5-0.2-0.8-0.3c-0.3-0.1-0.5-0.1-0.8-0.2
	c-0.2-0.1-0.4-0.1-0.6-0.3c-0.4-0.3-0.8-0.6-1.2-1c-0.1-0.1-0.3-0.2-0.3-0.4c0-0.2,0-0.3,0-0.5c0-0.4,0-0.8,0.1-1.1c0,0,0-0.1,0-0.1
	c0.1-0.3,0.1-0.7,0.2-1c0-0.1,0.1-0.2,0.2-0.2c0.1,0,0.2-0.1,0.3-0.2c0.2-0.4,0.3-0.9,0.4-1.3c0.1-0.4,0-0.8,0.1-1.2
	c0-0.1,0-0.2-0.1-0.3c0-0.1-0.1-0.1-0.1-0.2c0-0.2,0.1-0.4,0.1-0.6c0-0.5,0.1-0.9,0.1-1.4c0-0.3,0-0.6-0.2-0.9
	c-0.3-0.5-0.5-1.1-0.8-1.6c-0.2-0.5-0.6-0.8-0.9-1.2c-0.1-0.1-0.3-0.3-0.5-0.4c-0.4-0.2-0.9-0.4-1.4-0.4c-0.7-0.1-1.3-0.1-1.9,0.2
	c-0.4,0.1-0.7,0.3-1.1,0.5C9.5,5.1,9.2,5.3,9,5.5C8.9,5.7,8.8,5.8,8.6,6C8.4,6.4,8,6.8,7.8,7.2c-0.1,0.3-0.3,0.6-0.4,1
	c-0.1,0.4-0.1,0.9,0,1.4c0,0.4,0.1,0.8,0.3,1.2c0,0.1,0,0.1,0,0.2c-0.1,0.1-0.1,0.1-0.1,0.2c0,0.3,0,0.6,0.1,0.9
	c0,0.2,0.1,0.3,0.1,0.5c0.1,0.4,0.2,0.8,0.3,1.1C8.2,14,8.3,14.1,8.4,14c0.2-0.1,0.2,0,0.3,0.2c0.1,0.3,0.1,0.6,0.2,0.9
	C9,15.7,9,16.2,9,16.8c0,0.1,0,0.1,0,0.2c-0.2,0.3-0.5,0.5-0.7,0.8c-0.2,0.2-0.5,0.4-0.7,0.5c-0.5,0.2-0.9,0.4-1.4,0.6
	c-0.3,0.1-0.6,0.3-0.9,0.4C7,21,9.4,22,12,22C14.8,22,17.4,20.8,19.2,18.9z"/>
</svg>